<?xml version="1.0" encoding="UTF-8"?>
<svg xmlns="http://www.w3.org/2000/svg" viewBox="0 0 142.73 51.7">
  <defs>
    <style>
      .cls-1 {
        fill: #fff200;
      }

      .cls-1, .cls-2, .cls-3, .cls-4, .cls-5, .cls-6 {
        stroke-width: 0px;
      }

      .cls-2 {
        fill: #832990;
      }

      .cls-2, .cls-3, .cls-4, .cls-5, .cls-6 {
        mix-blend-mode: multiply;
      }

      .cls-3 {
        fill: #f6913b;
      }

      .cls-4 {
        fill: #543795;
      }

      .cls-7 {
        isolation: isolate;
      }

      .cls-5 {
        fill: #fcb333;
      }

      .cls-6 {
        fill: #ef3f6b;
      }

      .cls-8 {
        fill: none;
        stroke: #fff200;
        stroke-miterlimit: 10;
        stroke-width: 4px;
      }

      .cls-9 {
        mix-blend-mode: overlay;
      }
    </style>
  </defs>
  <g class="cls-7">
    <g id="Layer_1" data-name="Layer 1">
      <g>
        <path class="cls-5" d="M29.11,40.81l-13.16-19.37c-3.48-6.45,3.47-13.57,8.97-9.2l4.19,3.33,4.19-3.33c5.5-4.37,12.45,2.76,8.97,9.2l-13.16,19.37Z"/>
        <path class="cls-3" d="M48.66,47.39l-18.95-27.9C24.69,10.21,34.7-.05,42.63,6.25l6.03,4.79,6.03-4.79c7.92-6.3,17.94,3.97,12.92,13.25l-18.95,27.9Z"/>
        <path class="cls-2" d="M87.74,47.39l-18.95-27.9c-5.01-9.28,5-19.55,12.92-13.25l6.03,4.79,6.03-4.79c7.92-6.3,17.94,3.97,12.92,13.25l-18.95,27.9Z"/>
        <path class="cls-4" d="M107.28,40.81l-13.16-19.37c-3.48-6.45,3.47-13.57,8.97-9.2l4.19,3.33,4.19-3.33c5.5-4.37,12.45,2.76,8.97,9.2l-13.16,19.37Z"/>
        <path class="cls-6" d="M68.2,51.7l-22.74-33.48c-6.01-11.14,6-23.45,15.51-15.9l7.23,5.75,7.23-5.75c9.51-7.56,21.52,4.76,15.51,15.9l-22.74,33.48Z"/>
      </g>
      <g class="cls-9">
        <line class="cls-8" y1="22.42" x2="131.25" y2="22.42"/>
        <polygon class="cls-1" points="128.91 30.4 142.73 22.42 128.91 14.44 128.91 30.4"/>
      </g>
    </g>
  </g>
</svg>