<?xml version="1.0" encoding="utf-8"?>
<!-- Generator: Adobe Illustrator 28.5.0, SVG Export Plug-In . SVG Version: 9.03 Build 54727)  -->
<svg version="1.1" id="Layer_1" xmlns="http://www.w3.org/2000/svg" xmlns:xlink="http://www.w3.org/1999/xlink" x="0px" y="0px"
	 viewBox="0 0 288 288" style="enable-background:new 0 0 288 288;" xml:space="preserve">
<g>
	<path style="fill:none;stroke:#EF4423;stroke-width:17;stroke-linecap:round;stroke-miterlimit:10;" d="M191.43,169.51
		c-2.81-0.11-5.63-0.27-8.44-0.45c-6.6-0.41-12.84-2.08-18.78-4.69c-5.16-2.27-9.88-5.39-14.42-8.84
		c-6.5-4.94-6.82-13.09,0.04-18.07c5.98-4.34,12.52-6.52,19.96-6.19c10.95,0.49,22.16,9.49,23.72,20.28
		c0.87,6.04-0.02,12.11-1.81,18.32c-2.98,10.35-8.49,18.89-15.2,26.86c-7.43,8.83-16.17,16.12-26.36,21.69
		c-7.98,4.37-7.85,4.37-15.2-0.56c-9.46-6.35-18.17-13.52-25.53-22.23c-7.31-8.65-13.13-18.26-15.03-29.51
		c-1.23-7.3-0.23-14.83,3.27-21.58c4.46-8.6,11.17-15.01,20.17-18.85c4.04-1.72,8.31-2.77,12.39-4.44
		c21.48-8.76,37.2-23.49,47.22-44.43c3.14-6.57-1.05-13.39-7.33-14.21c-11.19-1.46-19.92,1.9-26.43,11.09
		c-1.61,2.28-2.37,4.96-2.74,7.6c-1.16,8.32-6.33,12.76-13.84,15.16c-5.4,1.72-10.98,1.89-16.57,1.68c-2.73-0.1-5.49-2.5-5.54-5.33
		c-0.06-3.2-0.84-6.32-0.68-9.55c0.78-15.92,6.14-20.16,18.31-30.89c0.7-0.62,1.57-1.06,2.15-2.28c-3.03-4.02-6.13-8.13-9.27-12.3
		c-3.7,1.85-7.2,3.48-10.57,5.34c-1.72,0.94-2.46,0.45-3.13-1.16c-2.3-5.54-4.66-11.06-7.01-16.58c-1.11-2.6-2.54-3.05-5.34-1.99
		c-5.59,2.12-11.21,4.2-16.86,6.18c-3.55,1.24-3.66,2.7-2.51,5.64c2.59,6.62,4.53,13.29,5.22,20.5c0.69,7.12-0.5,13.78-2.14,20.53
		c-0.23,0.93-0.38,1.87-0.57,2.81"/>
	<path style="fill:none;stroke:#F99B1C;stroke-width:17;stroke-linecap:round;stroke-miterlimit:10;" d="M72.32,86.23
		c-2.4,7.55-6.64,14.17-10.63,20.9c-5.44,9.17-8.98,19.03-11.6,29.34c-1.97,7.75-2.28,15.61-1.69,23.42
		c0.77,10.1,3.92,19.71,10.25,27.73c9.33,11.81,19.65,27.05,27.76,35.6s49.4,35.92,64.27,40.27c7.76,2.27,15.75,3.59,23.69,1.22
		c8.36-2.49,26.03-17.14,33.35-31.98s9.13-22.05,9.86-30.06c0.26-2.82,0.47-5.62,0.51-8.44"/>
	<path style="fill:none;stroke:#245FAC;stroke-width:17;stroke-linecap:round;stroke-miterlimit:10;" d="M178.84,133.67
		c-0.43-7.94,3.44-13.79,9.59-18.42c6.97-5.25,15.05-7.65,23.42-9.35c6.49-1.32,13-2.47,19.67-2.54c1.45-0.01,2.86-0.91,4.37-0.56
		c0.93,0.21,1.47-0.57,1.51-0.96c0.64-7.51,3.08-15.07-0.56-22.47c-2.17-4.41-4.05-5.01-9.07-4.14c-4.39,0.75-8.74,1.66-13.1,2.56
		c-0.81,0.17-1.69,0.02-2.38,0.02c-3.62-14.51-11.59-25.08-25.44-30.48c-2.74-1.07-2.6-2.3-2.18-4.49c0.86-4.55,1.6-9.14,2.18-13.73
		c0.3-2.37-0.12-3.98-3.36-4.56c-3.43-0.62-6.99-1.03-10.36-2.25c-1.68-0.6-3.83,1.66-4.34,4.31c-0.68,3.53-1.38,7.06-1.84,10.62
		c-0.22,1.72-1.21,2.47-2.54,3.12c-1.67,0.82-3.33,1.66-5,2.49"/>
	<path style="fill:none;stroke:#245FAC;stroke-width:17;stroke-linecap:round;stroke-miterlimit:10;" d="M219.03,193.3
		c-0.52-3.23-0.58-6.47,0.07-9.66c0.18-0.86,0.23-1.69,0.21-2.51c-0.23-10.31,1.24-20.6,0.61-30.9c-0.41-6.69-1.63-13.22-4.61-19.37
		c-5.76-11.92-21.48-13.04-29.99-4.03c-2.08,2.2-3.62,4.75-4.02,7.8"/>
	<path style="fill:none;stroke:#00A65C;stroke-width:17;stroke-linecap:round;stroke-miterlimit:10;" d="M159.72,42.22
		c-1.56-3.37-1.45-7.08-2.13-10.62c-0.33-1.73-0.55-3.53-0.79-5.28c-0.43-3.11-2.14-3.95-5.51-3.45c-2.71,0.41-5.43,0.75-8.11,1.27
		c-3.33,0.64-4.36,2.52-3.44,5.91c1.41,5.22,2.14,10.58,1.49,15.91c-1.28,10.45-5.6,19.47-13.3,26.91
		c-4.47,4.32-9.49,7.6-15.01,10.31c-0.72,0.36-1.07-0.05-1.59-0.06"/>
	<path style="fill:none;stroke:#8E2683;stroke-width:17;stroke-linecap:round;stroke-miterlimit:10;" d="M265.73,106.01
		c0.2,2.86-2.23,4.46-3.59,6.29c-5.57,7.53-10.3,15.62-15.95,23.1c-6.93,9.18-14.32,17.81-24.36,23.76
		c-8.34,4.95-17.22,8.31-27,9.02c-1.47,0.11-2.9,0.89-4.38,0.05"/>
	<path style="fill:none;stroke:#245FAC;stroke-width:17;stroke-linecap:round;stroke-miterlimit:10;" d="M22.69,59.07
		c12.35,10.01,25.62,18.45,40.59,24.01c3.03,1.13,6.08,2.26,9.36,2.52"/>
	<path style="fill:none;stroke:#8E2683;stroke-width:17;stroke-linecap:round;stroke-miterlimit:10;" d="M109.78,84.98
		c-2.99-0.44-5.59,1.18-8.4,1.71c-6.7,1.25-13.28,1.44-20.02,0.56c-2.96-0.39-5.9-0.64-8.73-1.64"/>
</g>
<g>
</g>
<g>
</g>
<g>
</g>
<g>
</g>
<g>
</g>
<g>
</g>
</svg>
