<svg id="Layer_1" data-name="Layer 1" xmlns="http://www.w3.org/2000/svg" viewBox="0 0 1000 1000"><title>1580-Floor</title><path d="M900,916H100a16,16,0,0,1-16-16V100a16,16,0,0,1,16-16H900a16,16,0,0,1,16,16V900A16,16,0,0,1,900,916ZM116,884H884V116H116Z"/><path d="M492.79,916a16,16,0,0,1-11.32-27.31L888.69,481.47a16,16,0,1,1,22.62,22.63L504.1,911.31A15.92,15.92,0,0,1,492.79,916Z"/><path d="M257.88,916a16,16,0,0,1-11.31-27.31L888.69,246.57a16,16,0,1,1,22.62,22.63L269.2,911.31A15.94,15.94,0,0,1,257.88,916Z"/><path d="M727.69,916a16,16,0,0,1-11.31-27.31L888.69,716.38A16,16,0,1,1,911.31,739L739,911.31A15.94,15.94,0,0,1,727.69,916Z"/><path d="M100,839a16,16,0,0,1-11.31-27.32l723-723a16,16,0,0,1,22.63,22.62l-723,723A16,16,0,0,1,100,839Z"/><path d="M100,604.07a16,16,0,0,1-11.31-27.31L576.76,88.69a16,16,0,0,1,22.62,22.62L111.31,599.38A15.92,15.92,0,0,1,100,604.07Z"/><path d="M100,369.16a16,16,0,0,1-11.31-27.31L341.85,88.69a16,16,0,0,1,22.63,22.62L111.31,364.48A16,16,0,0,1,100,369.16Z"/><path d="M578.69,594.6a15.91,15.91,0,0,1-11.31-4.69L449.92,472.46a16,16,0,0,1,22.63-22.62L590,567.29a16,16,0,0,1-11.31,27.31Z"/><path d="M814.19,830a15.91,15.91,0,0,1-11.31-4.69L685.17,707.61A16,16,0,1,1,707.8,685l117.7,117.7A16,16,0,0,1,814.19,830Z"/><path d="M375,798.93a15.92,15.92,0,0,1-11.31-4.69L246.18,676.79a16,16,0,1,1,22.63-22.63L386.26,771.62A16,16,0,0,1,375,798.93Z"/><path d="M564,844.8a15.94,15.94,0,0,1-11.32-4.69L435.22,722.66A16,16,0,0,1,457.85,700L575.3,817.49A16,16,0,0,1,564,844.8Z"/><path d="M829.51,580.33a16,16,0,0,1-11.31-4.69L700.75,458.19a16,16,0,1,1,22.62-22.63L840.83,553a16,16,0,0,1-11.32,27.32Z"/><path d="M594.08,344.89a16,16,0,0,1-11.31-4.68L465.31,222.76a16,16,0,0,1,22.63-22.63L605.39,317.58a16,16,0,0,1-11.31,27.31Z"/><path d="M329.79,610.6a15.91,15.91,0,0,1-11.31-4.69L201,488.46a16,16,0,0,1,22.63-22.63L341.1,583.29a16,16,0,0,1-11.31,27.31Z"/><path d="M782.67,391.19a15.92,15.92,0,0,1-11.31-4.69L653.9,269.05a16,16,0,1,1,22.63-22.63L794,363.87a16,16,0,0,1-11.31,27.32Z"/><path d="M343.91,360.16a15.94,15.94,0,0,1-11.38-4.76C305.18,327.71,239,260.83,215.59,238.05a16,16,0,1,1,22.29-23c23.67,23,90,90,117.41,117.82a16,16,0,0,1-11.38,27.24Z"/></svg>