<?xml version="1.0" encoding="utf-8" ?>
<svg xmlns="http://www.w3.org/2000/svg" xmlns:xlink="http://www.w3.org/1999/xlink" width="2500" height="2500">
	<path fill="#FCE6D0" transform="scale(4.88281 4.88281)" d="M197.956 52.2552L314.474 52.2552L314.474 72.9003C319.169 72.839 331.391 72.1947 335.465 72.9003C335.358 80.1864 335.404 87.4971 335.465 94.784C341.928 94.706 350.193 94.169 356.566 94.784L356.566 104.373C356.829 108.289 356.979 112.61 356.566 116.515L356.566 159.646L335.465 159.646C335.509 161.213 335.624 162.808 335.465 164.37L335.465 228.414C335.481 235.627 335.631 242.869 335.465 250.079L335.465 272.836C331.514 272.511 318.213 272.351 314.474 272.836L314.474 272.836L314.474 294.779C308.169 294.333 299.879 294.765 293.344 294.779L218.734 294.779L204.738 294.751C202.511 294.747 200.171 294.596 197.956 294.779C197.152 287.678 197.957 279.984 197.956 272.836L197.956 272.836C195.797 272.535 193.325 272.804 191.13 272.811L176.483 272.836L176.483 250.079L176.483 250.079L176.483 228.414L176.484 181.801C176.485 174.473 176.063 166.947 176.483 159.646L176.447 159.6L176.008 159.432L176.355 159.422C175.012 159.075 157.533 159.654 155.057 159.646L155.057 116.515L155.057 94.784C157.313 94.5442 159.734 94.7547 162.008 94.7615L176.483 94.784C176.271 91.7012 176.199 88.7271 176.483 85.6461C176.461 81.4016 176.367 77.1431 176.483 72.9003L197.956 72.9003L197.956 72.9003C198.38 66.4464 197.964 58.8402 197.956 52.2552Z"/>
	<path fill="#98BBBA" transform="scale(4.88281 4.88281)" d="M197.956 52.2552L314.474 52.2552L314.474 72.9003C319.169 72.839 331.391 72.1947 335.465 72.9003C335.358 80.1864 335.404 87.4971 335.465 94.784C341.928 94.706 350.193 94.169 356.566 94.784L356.566 104.373C356.829 108.289 356.979 112.61 356.566 116.515L356.566 159.646L335.465 159.646C335.509 161.213 335.624 162.808 335.465 164.37C335.296 162.554 336.496 160.094 334.17 159.646C331.913 159.466 329.534 159.614 327.265 159.619L314.474 159.646L314.474 137.65C306.358 137.407 298.171 137.659 290.047 137.66L211.772 137.651C207.264 137.648 202.425 137.23 197.956 137.65L197.956 137.65L197.956 159.646C192.679 159.641 187.397 159.59 182.121 159.646C180.724 159.752 177.431 159.124 176.483 159.646L176.447 159.6L176.008 159.432L176.355 159.422C175.012 159.075 157.533 159.654 155.057 159.646L155.057 116.515L155.057 94.784C157.313 94.5442 159.734 94.7547 162.008 94.7615L176.483 94.784C176.271 91.7012 176.199 88.7271 176.483 85.6461C176.461 81.4016 176.367 77.1431 176.483 72.9003L197.956 72.9003L197.956 72.9003C198.38 66.4464 197.964 58.8402 197.956 52.2552Z"/>
	<path fill="#27303A" transform="scale(4.88281 4.88281)" d="M197.956 116.515L314.474 116.515L314.474 137.65C306.358 137.407 298.171 137.659 290.047 137.66L211.772 137.651C207.264 137.648 202.425 137.23 197.956 137.65C197.511 132.923 197.594 121.344 197.956 116.515Z"/>
	<path fill="#27303A" transform="scale(4.88281 4.88281)" d="M197.956 52.2552L314.474 52.2552L314.474 72.9003L293.344 72.9003C288.871 72.6822 284.3 72.8845 279.814 72.8867L253.133 72.9003C247.254 72.7224 241.335 72.8967 235.451 72.8951L197.956 72.9003C198.38 66.4464 197.964 58.8402 197.956 52.2552Z"/>
	<path fill="#DFEEF3" transform="scale(4.88281 4.88281)" d="M253.133 72.9003L279.814 72.8867C284.3 72.8845 288.871 72.6822 293.344 72.9003L293.344 94.784L218.734 94.784L218.734 72.9003L242.366 72.9102C245.883 72.9173 249.657 73.299 253.133 72.9003Z"/>
	<path fill="#27303A" transform="scale(4.88281 4.88281)" d="M176.483 72.9003L197.956 72.9003C198.159 75.6077 198.012 78.392 197.994 81.1076L197.956 94.784L176.483 94.784C176.497 91.7875 176.722 88.6232 176.483 85.6461C176.461 81.4016 176.367 77.1431 176.483 72.9003Z"/>
	<path fill="#27303A" transform="scale(4.88281 4.88281)" d="M176.483 94.784L176.483 116.515L155.057 116.515L155.057 94.784C157.313 94.5442 159.734 94.7547 162.008 94.7615L176.483 94.784Z"/>
	<path fill="#27303A" transform="scale(4.88281 4.88281)" d="M176.483 137.65L189.808 137.613C192.456 137.584 195.338 137.324 197.956 137.65L197.956 159.646C192.679 159.641 187.397 159.59 182.121 159.646C180.255 159.493 178.353 159.604 176.483 159.646L176.483 137.65Z"/>
	<path fill="#27303A" transform="scale(4.88281 4.88281)" d="M335.465 94.784C341.928 94.706 350.193 94.169 356.566 94.784L356.566 104.373C356.46 108.415 356.544 112.471 356.566 116.515L335.465 116.515L335.465 94.784Z"/>
	<path fill="#27303A" transform="scale(4.88281 4.88281)" d="M314.474 137.65L335.465 137.65C335.473 141.525 337.134 159.227 334.17 159.646C331.913 159.466 329.534 159.614 327.265 159.619L314.474 159.646L314.474 137.65Z"/>
	<path fill="#27303A" transform="scale(4.88281 4.88281)" d="M314.474 72.9003C321.175 72.863 328.935 73.4249 335.465 72.9003C335.358 80.1864 335.404 87.4971 335.465 94.784L314.474 94.784L314.474 72.9003Z"/>
	<path fill="#3E4042" transform="scale(4.88281 4.88281)" d="M197.956 272.836C213.27 272.846 228.652 273.187 243.957 272.836L288.713 272.836C297.298 272.931 305.888 272.819 314.474 272.836L314.474 294.779C308.169 294.333 299.879 294.765 293.344 294.779L218.734 294.779L204.738 294.751C202.511 294.747 200.171 294.596 197.956 294.779C197.152 287.678 197.957 279.984 197.956 272.836Z"/>
	<path fill="#F4A26E" transform="scale(4.88281 4.88281)" d="M218.734 250.079L218.734 272.836L235.799 272.813C238.47 272.809 241.308 272.595 243.957 272.836C228.652 273.187 213.27 272.846 197.956 272.836L197.956 272.836C195.797 272.535 193.325 272.804 191.13 272.811L176.483 272.836L176.483 250.079C183.257 250.023 191.331 249.653 197.956 250.079C203.268 250.578 213.333 250.305 218.734 250.079Z"/>
	<path fill="#3E4042" transform="scale(4.88281 4.88281)" d="M176.483 250.079C183.257 250.023 191.331 249.653 197.956 250.079L197.979 266.005C197.985 268.202 198.25 270.676 197.956 272.836C195.797 272.535 193.325 272.804 191.13 272.811L176.483 272.836L176.483 250.079Z"/>
	<path fill="#F4A26E" transform="scale(4.88281 4.88281)" d="M314.474 250.079L335.465 250.079L335.465 272.836C331.514 272.511 318.213 272.351 314.474 272.836L314.474 272.836C305.888 272.819 297.298 272.931 288.713 272.836C290.218 272.695 291.827 272.816 293.344 272.836L293.367 258.854C293.396 255.956 293.611 252.96 293.344 250.079C294.691 249.567 311.303 250.204 314.474 250.079Z"/>
	<path fill="#3E4042" transform="scale(4.88281 4.88281)" d="M314.474 250.079L335.465 250.079L335.465 272.836C331.514 272.511 318.213 272.351 314.474 272.836C314.171 270.525 314.439 267.835 314.45 265.487L314.474 250.079Z"/>
	<path fill="#F4A26E" transform="scale(4.88281 4.88281)" d="M176.483 228.414L197.956 228.414C197.946 235.581 197.595 242.934 197.956 250.079C191.331 249.653 183.257 250.023 176.483 250.079L176.483 250.079L176.483 228.414Z"/>
	<path fill="#F4A26E" transform="scale(4.88281 4.88281)" d="M314.474 228.414L335.465 228.414C335.481 235.627 335.631 242.869 335.465 250.079L314.474 250.079L314.474 228.414Z"/>
	<path fill="#3E4042" transform="scale(4.88281 4.88281)" d="M218.734 228.414L293.344 228.414L293.37 243.084C293.374 245.37 293.557 247.809 293.344 250.079C291.375 249.895 289.264 250.06 287.281 250.062L234.373 250.053C229.663 250.05 223.224 250.631 218.734 250.079L218.734 228.414Z"/>
	<path fill="#27303A" transform="scale(4.88281 4.88281)" d="M296.235 182.666L314.474 182.666L314.482 196.487C314.486 200.328 316.023 205.171 312.312 205.245L293.344 205.245L293.344 182.666L296.235 182.666Z"/>
	<path fill="#27303A" transform="scale(4.88281 4.88281)" d="M197.956 182.666L218.734 182.666L218.734 205.245L197.956 205.245L197.956 182.666Z"/>
	<path fill="#DFEEF3" transform="scale(4.88281 4.88281)" d="M218.734 294.779L293.344 294.779C293.56 302.414 293.734 310.399 293.344 318.032C299.145 319.237 308.141 316.856 314.474 318.032C314.472 325.986 314.26 333.997 314.474 341.944L335.465 341.944C342.496 341.933 349.537 341.846 356.566 341.944L356.566 341.944C363.503 342.265 370.57 341.936 377.523 341.944L377.523 411.247L356.566 411.247L356.566 432.958C349.536 432.956 342.494 432.863 335.465 432.958C335.469 439.006 335.633 445.099 335.465 451.142L335.465 454.391C327.867 454.637 320.185 454.393 312.579 454.392L267.026 454.391C266.7 452.237 266.984 449.625 266.999 447.421L267.026 432.958L251.965 432.931C249.715 432.918 246.914 432.587 244.735 432.958L244.735 454.391L176.483 454.391L176.483 432.958C174.114 432.762 171.639 432.926 169.259 432.932L155.057 432.958C155.052 430.495 155.367 410.872 155.057 410.245L155.057 410.245C155.207 407.908 155.064 405.465 155.063 403.118L155.057 388.3L155.057 366.938L155.057 341.944C155.035 338.921 154.99 335.896 155.057 332.874L155.057 318.032L176.483 318.032L176.483 294.779C183.62 294.767 190.831 295.055 197.956 294.779C200.171 294.596 202.511 294.747 204.738 294.751L218.734 294.779Z"/>
	<path fill="#27303A" transform="scale(4.88281 4.88281)" d="M197.956 294.779C200.171 294.596 202.511 294.747 204.738 294.751L218.734 294.779C218.745 302.488 218.424 310.337 218.734 318.032C211.843 318.287 204.856 318.04 197.956 318.032C197.965 330.266 198.24 342.559 197.956 354.786L197.956 388.3L197.956 411.247L253.911 411.231C257.122 411.218 260.411 411.031 263.612 411.247L267.026 411.247L267.026 432.958L251.965 432.931C249.715 432.918 246.914 432.587 244.735 432.958L244.735 454.391L176.483 454.391L176.483 432.958C174.114 432.762 171.639 432.926 169.259 432.932L155.057 432.958C155.052 430.495 155.367 410.872 155.057 410.245L155.057 410.245C155.207 407.908 155.064 405.465 155.063 403.118L155.057 388.3L155.057 366.938L155.057 341.944C155.035 338.921 154.99 335.896 155.057 332.874L155.057 318.032L176.483 318.032L176.483 294.779C183.62 294.767 190.831 295.055 197.956 294.779Z"/>
	<path fill="#27303A" transform="scale(4.88281 4.88281)" d="M197.956 294.779C200.171 294.596 202.511 294.747 204.738 294.751L218.734 294.779C218.745 302.488 218.424 310.337 218.734 318.032C211.843 318.287 204.856 318.04 197.956 318.032C197.965 330.266 198.24 342.559 197.956 354.786C197.63 350.594 197.936 346.159 197.956 341.944L176.483 341.944L176.483 364.456C173.349 364.451 156.876 363.979 155.284 364.836C155.117 365.556 155.069 366.2 155.057 366.938L155.057 341.944C155.035 338.921 154.99 335.896 155.057 332.874L155.057 318.032L176.483 318.032L176.483 294.779C183.62 294.767 190.831 295.055 197.956 294.779Z"/>
	<path fill="#61C7E8" transform="scale(4.88281 4.88281)" d="M176.483 318.032L197.956 318.032C197.965 330.266 198.24 342.559 197.956 354.786C197.63 350.594 197.936 346.159 197.956 341.944L176.483 341.944L176.483 341.944C176.75 339.408 176.51 336.637 176.505 334.076L176.483 318.032Z"/>
	<path fill="#61C7E8" transform="scale(4.88281 4.88281)" d="M155.057 341.944C155.035 338.921 154.99 335.896 155.057 332.874C155.214 335.919 155.188 338.897 155.057 341.944L169.326 341.919C171.623 341.904 174.237 341.597 176.483 341.944L176.483 341.944L176.483 364.456C173.349 364.451 156.876 363.979 155.284 364.836C155.117 365.556 155.069 366.2 155.057 366.938L155.057 341.944Z"/>
	<path fill="#61C7E8" transform="scale(4.88281 4.88281)" d="M197.956 294.779C200.171 294.596 202.511 294.747 204.738 294.751L218.734 294.779C218.745 302.488 218.424 310.337 218.734 318.032C211.843 318.287 204.856 318.04 197.956 318.032C197.955 310.286 198.106 302.523 197.956 294.779Z"/>
	<path fill="#5D77A0" transform="scale(4.88281 4.88281)" d="M197.956 411.247L253.911 411.231C257.122 411.218 260.411 411.031 263.612 411.247C257.323 411.343 251.024 411.262 244.735 411.247C244.741 414.373 245.24 431.225 244.451 432.781L243.957 432.958L197.956 432.958L197.956 411.247Z"/>
	<path fill="#3E4042" transform="scale(4.88281 4.88281)" d="M176.483 388.3L176.483 399.563C176.861 400.119 176.477 430.085 176.483 432.958C174.114 432.762 171.639 432.926 169.259 432.932L155.057 432.958C155.052 430.495 155.367 410.872 155.057 410.245L155.057 410.245C155.207 407.908 155.064 405.465 155.063 403.118L155.057 388.3L169.374 388.268C171.676 388.264 174.21 388.038 176.483 388.3Z"/>
	<path fill="#F4A26E" transform="scale(4.88281 4.88281)" d="M176.483 388.3L176.483 399.563C176.492 403.1 176.665 406.718 176.483 410.245L155.057 410.245C155.207 407.908 155.064 405.465 155.063 403.118L155.057 388.3L169.374 388.268C171.676 388.264 174.21 388.038 176.483 388.3Z"/>
	<path fill="#FCEDA9" transform="scale(4.88281 4.88281)" d="M155.057 366.938C155.069 366.2 155.117 365.556 155.284 364.836C156.876 363.979 173.349 364.451 176.483 364.456L176.483 388.3C174.21 388.038 171.676 388.264 169.374 388.268L155.057 388.3L155.057 366.938Z"/>
	<path fill="#27303A" transform="scale(4.88281 4.88281)" d="M356.566 341.944L356.566 341.944C363.503 342.265 370.57 341.936 377.523 341.944L377.523 411.247L356.566 411.247L356.566 432.958C349.536 432.956 342.494 432.863 335.465 432.958C335.469 439.006 335.633 445.099 335.465 451.142L335.465 454.391C327.867 454.637 320.185 454.393 312.579 454.392L267.026 454.391C266.7 452.237 266.984 449.625 266.999 447.421L267.026 432.958L267.026 411.247L314.474 411.247L314.444 397.066C314.42 394.182 314.212 391.168 314.474 388.3L314.474 388.3L314.474 341.944L335.465 341.944C342.496 341.933 349.537 341.846 356.566 341.944Z"/>
	<path fill="#27303A" transform="scale(4.88281 4.88281)" d="M356.566 341.944L356.566 341.944C363.503 342.265 370.57 341.936 377.523 341.944L377.523 411.247L356.566 411.247L356.55 379.875C356.552 375.025 356.874 370.052 356.566 365.218L335.465 365.218L335.465 341.944C342.496 341.933 349.537 341.846 356.566 341.944Z"/>
	<path fill="#61C7E8" transform="scale(4.88281 4.88281)" d="M356.566 341.944L356.566 341.944L356.566 365.218L335.465 365.218L335.465 341.944C342.496 341.933 349.537 341.846 356.566 341.944Z"/>
	<path fill="#5D77A0" transform="scale(4.88281 4.88281)" d="M314.474 388.3C314.656 393.787 314.488 399.317 314.474 404.809L314.474 432.958L267.026 432.958C267.254 436.459 267.56 451.409 267.026 454.391C266.7 452.237 266.984 449.625 266.999 447.421L267.026 432.958L267.026 411.247L314.474 411.247L314.444 397.066C314.42 394.182 314.212 391.168 314.474 388.3Z"/>
	<path fill="#F4A26E" transform="scale(4.88281 4.88281)" d="M335.465 365.218L356.566 365.218C356.874 370.052 356.552 375.025 356.55 379.875L356.566 411.247L335.465 411.247C335.316 408.304 335.476 405.344 335.465 402.397L335.457 379.339C335.451 375.214 335.301 371.058 335.465 366.938L335.465 365.218Z"/>
	<path fill="#FCE6D0" transform="scale(4.88281 4.88281)" d="M335.465 365.218L356.566 365.218C356.15 372.833 356.57 380.661 356.566 388.3L335.465 388.3C335.479 381.247 335.87 373.965 335.465 366.938L335.465 365.218Z"/>
	<path fill="#475E65" transform="scale(4.88281 4.88281)" d="M335.465 402.397C335.476 405.344 335.316 408.304 335.465 411.247L356.566 411.247L356.566 432.958C349.536 432.956 342.494 432.863 335.465 432.958C335.469 439.006 335.633 445.099 335.465 451.142C334.862 449.011 335.449 444.45 335.461 442.058L335.464 422.307C335.466 415.726 334.757 408.936 335.465 402.397Z"/>
	<path fill="#FEFEFE" transform="scale(4.88281 4.88281)" d="M218.734 294.779L293.344 294.779C293.56 302.414 293.734 310.399 293.344 318.032L293.344 318.032C293.545 323.286 293.353 328.619 293.35 333.88L293.344 365.218L218.734 365.218L218.735 333.864C218.739 328.595 218.942 323.296 218.734 318.032C218.424 310.337 218.745 302.488 218.734 294.779Z"/>
	<path fill="#FCE6D0" transform="scale(4.88281 4.88281)" d="M218.734 294.779L293.344 294.779C293.56 302.414 293.734 310.399 293.344 318.032L293.344 318.032L218.734 318.032C218.424 310.337 218.745 302.488 218.734 294.779Z"/>
	<path fill="#91B4D1" transform="scale(4.88281 4.88281)" d="M314.474 388.3L314.474 388.3C314.212 391.168 314.42 394.182 314.444 397.066L314.474 411.247L267.026 411.247L263.612 411.247C260.411 411.031 257.122 411.218 253.911 411.231L197.956 411.247L197.956 388.3L314.474 388.3Z"/>
	<path fill="#27303A" transform="scale(4.88281 4.88281)" d="M356.566 116.515C363.502 116.837 370.572 116.508 377.523 116.515L377.523 159.646C385.135 159.656 392.811 159.874 400.416 159.646C400.168 182.395 400.418 205.174 400.416 227.926L377.523 227.926L377.523 250.079L377.523 272.836C374.614 272.609 371.644 272.782 368.724 272.813L356.566 272.836C356.238 270.351 356.521 267.493 356.54 264.97L356.566 250.079C349.538 250.189 342.495 250.091 335.465 250.079C335.631 242.869 335.481 235.627 335.465 228.414L335.465 164.37C335.624 162.808 335.509 161.213 335.465 159.646L356.566 159.646L356.566 116.515Z"/>
	<path fill="#475E65" transform="scale(4.88281 4.88281)" d="M356.566 227.926L377.523 227.926L377.523 250.079L377.523 272.836C374.614 272.609 371.644 272.782 368.724 272.813L356.566 272.836C356.238 270.351 356.521 267.493 356.54 264.97L356.566 250.079L356.566 227.926Z"/>
	<path fill="#27303A" transform="scale(4.88281 4.88281)" d="M356.566 250.079C363.375 249.684 370.713 249.797 377.523 250.079L377.523 272.836C374.614 272.609 371.644 272.782 368.724 272.813L356.566 272.836C356.952 270.303 356.616 267.427 356.592 264.841L356.566 250.079Z"/>
	<path fill="#FFAAAC" transform="scale(4.88281 4.88281)" d="M355.539 180.726L379.646 180.726L379.646 207.719L355.539 207.719L355.539 180.726Z"/>
	<path fill="#27303A" transform="scale(4.88281 4.88281)" d="M155.057 116.515L155.057 159.646C157.533 159.654 175.012 159.075 176.355 159.422L176.008 159.432L176.447 159.6L176.483 159.646C176.063 166.947 176.485 174.473 176.484 181.801L176.483 228.414L176.483 250.079C169.343 250.08 162.196 249.999 155.057 250.079L155.057 250.079C153.522 249.656 136.363 250.075 133.551 250.079C133.534 242.704 133.761 235.295 133.551 227.926C127.534 227.649 118.004 227.518 112.047 227.926L112.031 169.211C112.011 166.036 111.824 162.811 112.047 159.646C119.121 159.285 126.46 159.538 133.551 159.646L133.551 116.515C140.711 116.504 147.903 116.716 155.057 116.515Z"/>
	<path fill="#475E65" transform="scale(4.88281 4.88281)" d="M133.551 227.926C140.664 227.561 147.923 227.947 155.057 227.926C155.043 234.984 154.616 243.157 155.057 250.079L155.057 250.079C153.522 249.656 136.363 250.075 133.551 250.079C133.534 242.704 133.761 235.295 133.551 227.926Z"/>
	<path fill="#FFAAAC" transform="scale(4.88281 4.88281)" d="M132.723 181.899L155.057 181.899L155.057 205.245L132.723 205.245L132.723 181.899Z"/>
	<path fill="#61C7E8" transform="scale(4.88281 4.88281)" d="M314.474 294.779C315.517 294.772 316.576 294.726 317.617 294.779L335.465 294.779L335.442 310.167C335.438 312.767 335.303 315.443 335.465 318.032C342.486 318.231 349.541 318.019 356.566 318.032L356.542 334.46C356.538 336.884 356.294 339.545 356.566 341.944C349.537 341.846 342.496 341.933 335.465 341.944L314.474 341.944C314.26 333.997 314.472 325.986 314.474 318.032C308.141 316.856 299.145 319.237 293.344 318.032C293.734 310.399 293.56 302.414 293.344 294.779C299.879 294.765 308.169 294.333 314.474 294.779Z"/>
	<path fill="#27303A" transform="scale(4.88281 4.88281)" d="M335.465 318.032C342.486 318.231 349.541 318.019 356.566 318.032L356.542 334.46C356.538 336.884 356.294 339.545 356.566 341.944C349.537 341.846 342.496 341.933 335.465 341.944L335.465 318.032L335.465 318.032Z"/>
	<path fill="#3E4042" transform="scale(4.88281 4.88281)" d="M317.617 294.779L335.465 294.779L335.442 310.167C335.438 312.767 335.303 315.443 335.465 318.032L335.465 318.032C328.487 317.731 321.459 318.3 314.474 318.032L314.456 303.985C314.451 298.519 312.59 295.207 317.617 294.779Z"/>
	<path fill="#27303A" transform="scale(4.88281 4.88281)" d="M155.057 341.944L155.057 366.938L155.057 388.3L155.063 403.118C155.064 405.465 155.207 407.908 155.057 410.245L155.057 410.245C152.091 410.56 148.981 410.308 146 410.278L133.551 410.245L133.551 341.944L155.057 341.944Z"/>
	<path fill="#27303A" transform="scale(4.88281 4.88281)" d="M133.551 250.079C136.363 250.075 153.522 249.656 155.057 250.079C154.894 257.652 155.058 265.259 155.057 272.836L133.551 272.836C133.179 265.327 133.541 257.61 133.551 250.079Z"/>
</svg>
