<?xml version="1.0" encoding="UTF-8"?><svg id="Layer_1" xmlns="http://www.w3.org/2000/svg" viewBox="0 0 512 512"><path d="m414.424,143.219c-.01-.025-.024-.048-.035-.073-.096-.235-.203-.464-.328-.686-.021-.038-.046-.073-.068-.111-.113-.191-.237-.375-.371-.554-.034-.044-.066-.09-.101-.133-.16-.202-.332-.395-.519-.576-.012-.012-.026-.022-.039-.034-.174-.166-.361-.319-.556-.464-.043-.032-.085-.064-.129-.094-.209-.147-.427-.286-.658-.407,0,0,0,0-.002-.001-.184-.096-.375-.185-.572-.263-.044-.018-.089-.029-.134-.045-.063-.023-.127-.044-.192-.065-.205-.068-.41-.125-.617-.17-.047-.01-.093-.023-.14-.032-.262-.05-.523-.082-.785-.097-.014,0-.027-.004-.042-.005l-108.515-5.459-65.191-58.271c-1.866-1.668-4.572-2.003-6.788-.838-.493.259-49.245,25.781-73.335,31.734l-112.739,3.279c-3.108.09-5.633,2.541-5.814,5.646l-12.27,209.485c-.107,1.847.643,3.641,2.033,4.86l87.693,76.943c.007.006.016.011.023.018.013.012.024.025.038.036.048.041.102.068.15.106.202.162.41.313.63.446.106.065.215.121.324.178.18.095.363.181.552.258.121.049.242.096.365.136.195.064.395.114.597.158.112.024.223.055.336.073.036.006.071.018.107.023l210.885,29.552s.007,0,.011.002l.067.009c.192.026.385.032.578.04.085.004.169.02.256.02.359,0,.722-.037,1.084-.104.011-.002.022-.001.033-.003l106.707-20.243c.21-.04.42-.091.629-.154.063-.019.123-.044.185-.064.113-.038.228-.073.34-.119.019-.008.036-.018.055-.026.085-.036.168-.078.251-.117.108-.051.217-.102.321-.158.074-.041.145-.086.217-.129.109-.066.218-.133.322-.205.063-.044.123-.091.185-.137.107-.08.211-.162.312-.249.056-.049.111-.099.165-.15.098-.091.193-.185.285-.282.052-.055.102-.111.152-.167.087-.1.169-.203.25-.308.047-.061.094-.122.138-.185.078-.11.149-.224.219-.339.028-.047.062-.09.089-.138l45.67-80.192c.896-1.573,1.033-3.468.375-5.153l-72.69-186.005Zm-81.413,281.784l-39.828-108.571,73.174-60.321,61.188,150.958-94.534,17.933Zm-185.056-235.398l101.359,52.586-64.794,73.224-75.771-22.322,39.207-103.488Zm43.054,136.585l65.725-74.276,63.316,172.601-190.218-26.657,61.176-71.668Zm172.83-83.554l-75.036,61.855-23.483-64.016,36.9-94.428,97.952,4.928-36.333,91.661Zm-207.554-124.082c.408-.012.815-.065,1.213-.16,21.646-5.146,60.77-24.726,73.021-31.009l60.581,54.149-35.355,90.475-108.029-56.047-86.814-54.633,95.384-2.774Zm-108.21,8.88l89.309,56.203-42.15,111.256c-.591,1.562-.505,3.3.238,4.796.742,1.495,2.075,2.613,3.678,3.086l76.765,22.614-58.36,68.371-80.918-70.998,11.439-195.328Zm388.692,270.441l-61.455-151.618,33.484-84.473,66.1,169.14-38.129,66.951Z"/></svg>