<?xml version="1.0" encoding="UTF-8"?><svg id="uuid-dfb40a15-09f6-4575-9990-bff02084ac38" xmlns="http://www.w3.org/2000/svg" viewBox="0 0 64 64"><path d="m46.54,46.16c-.21-.41-.67-.62-1.12-.51-.45.11-.76.5-.77.96,0,1.15-.48,2.32-1.06,3.34-.04-1.28-.35-2.45-.91-3.48-1.45-2.64-4.08-3.41-4.19-3.44-.34-.09-.7,0-.96.24-.26.24-.36.6-.29.95.51,2.23.11,3.93-.33,4.97-.73-.91-1.59-1.92-1.87-2.25v-5.94h6.94c.55,0,1-.45,1-1s-.45-1-1-1h-6.94v-2h8.94c.55,0,1-.45,1-1s-.45-1-1-1h-8.94v-2h6.94c.38,0,.72-.21.89-.55.17-.34.13-.74-.09-1.05l-4.8-6.4h2c.38,0,.72-.21.89-.55.17-.34.13-.74-.09-1.05l-4.8-6.4h2c.36,0,.69-.19.87-.51.18-.31.17-.7-.01-1.01l-6-10c-.36-.6-1.35-.6-1.71,0l-6,10c-.19.31-.19.69-.01,1.01.18.31.51.51.87.51h2l-4.8,6.4c-.23.3-.26.71-.09,1.05.17.34.52.55.89.55h2l-4.8,6.4c-.23.3-.26.71-.09,1.05.17.34.52.55.89.55h7.06v2h-9.06c-.55,0-1,.45-1,1s.45,1,1,1h9.06v2h-7.06c-.55,0-1,.45-1,1s.45,1,1,1h7.06v5.82s-.02.02-.04.03c-.16.18-1.14,1.33-1.95,2.34-.43-1.04-.84-2.74-.33-4.97.08-.34-.03-.7-.29-.95s-.62-.33-.96-.24c-.11.03-2.74.8-4.19,3.44-.57,1.03-.87,2.2-.91,3.48-.58-1.02-1.05-2.19-1.06-3.34,0-.46-.32-.86-.77-.96-.45-.11-.91.1-1.12.51-.41.78-3.93,7.72-1.85,11.08.5.81,1.53,1.76,3.63,1.76.04,0,.07,0,.11,0h8.43c1.65,0,3.19-.68,4.22-1.78,1.03,1.1,2.57,1.78,4.22,1.78h8.42c2.2-.01,3.25-.94,3.76-1.76,2.07-3.36-1.45-10.3-1.85-11.08Zm-17.75-21.56c.23-.3.26-.71.09-1.05-.17-.34-.52-.55-.89-.55h-2l4.8-6.4c.23-.3.26-.71.09-1.05-.17-.34-.52-.55-.89-.55h-2.23l4.23-7.06,4.23,7.06h-2.23c-.38,0-.72.21-.89.55-.17.34-.13.74.09,1.05l4.8,6.4h-2c-.38,0-.72.21-.89.55-.17.34-.13.74.09,1.05l4.8,6.4h-6c-.55,0-1,.45-1,1,0,.1.03.19.06.28v3.45c-.03.09-.06.18-.06.28s.03.19.06.28v3.45c-.03.09-.06.18-.06.28s.03.19.06.28v7.72c0,.14.03.28.09.4-.17,1.06-.64,1.79-1.14,2.53-.48-.71-.93-1.4-1.12-2.39.1-.16.18-.34.18-.54v-16c0-.55-.45-1-1-1,0,0-.02,0-.03,0,0,0-.02,0-.03,0h-6l4.8-6.4Zm17.9,31.59c-.13.21-.5.81-2.04.81h-8.43c-1.48,0-2.8-.79-3.3-1.96-.16-.37-.52-.61-.92-.61s-.76.24-.92.61c-.5,1.17-1.82,1.96-3.3,1.96h-8.45c-1.55.06-1.9-.6-2.02-.81-.79-1.29-.16-4.06.75-6.47,1.1,2.55,3.08,4.51,3.2,4.62.33.32.83.38,1.22.14s.57-.71.44-1.15c-.72-2.37-.67-4.35.15-5.87.4-.75.95-1.29,1.46-1.68-.17,3.61,1.58,5.75,1.67,5.86.2.24.51.38.82.36.32-.02.6-.18.78-.45.23-.35.78-1.04,1.35-1.74.33.98.84,1.71,1.28,2.36.27.4.51.74.66,1.08.16.36.52.58.91.58s.75-.23.91-.58c.16-.34.39-.68.66-1.08.44-.64.95-1.38,1.28-2.36.57.69,1.12,1.39,1.35,1.74.17.26.46.43.78.45.32.02.62-.11.82-.36.09-.1,1.83-2.25,1.67-5.86.51.38,1.05.92,1.45,1.66.83,1.53.89,3.51.16,5.9-.13.44.05.91.44,1.15.39.24.89.18,1.22-.14.11-.11,2.1-2.07,3.2-4.62.91,2.41,1.55,5.18.75,6.47Z"/></svg>