<?xml version="1.0" encoding="UTF-8"?><svg width="512" height="512" version="1.1" viewBox="0 0 512 512" xmlns="http://www.w3.org/2000/svg" xmlns:xlink="http://www.w3.org/1999/xlink"><!--Generated by IJSVG (https://github.com/iconjar/IJSVG)--><g transform="scale(8)"><path fill="#000" d="M49.414,46.586l-8.586,-8.586h5.172c0.776,0 1.482,-0.449 1.812,-1.151c0.329,-0.703 0.222,-1.533 -0.275,-2.129l-7.266,-8.72h1.729c0.727,0 1.396,-0.395 1.749,-1.03c0.353,-0.636 0.332,-1.413 -0.053,-2.03l-10,-16c-0.366,-0.585 -1.007,-0.94 -1.696,-0.94c-0.689,0 -1.331,0.355 -1.696,0.94l-10,16c-0.386,0.617 -0.406,1.394 -0.054,2.03c0.353,0.635 1.023,1.03 1.75,1.03h1.73l-7.267,8.72c-0.497,0.596 -0.604,1.426 -0.274,2.129c0.329,0.702 1.035,1.151 1.811,1.151h5.171l-8.585,8.586c-0.572,0.572 -0.743,1.432 -0.434,2.18c0.31,0.747 1.039,1.234 1.848,1.234h14v6c0,1.104 0.896,2 2,2c1.104,0 2,-0.896 2,-2v-6h14c0.809,0 1.538,-0.487 1.848,-1.234c0.309,-0.748 0.138,-1.608 -0.434,-2.18Z"></path></g></svg>